<?xml version="1.0" encoding="utf-8"?>
<!-- Generator: Adobe Illustrator 24.0.1, SVG Export Plug-In . SVG Version: 6.00 Build 0)  -->
<svg version="1.1" id="Layer_1" xmlns="http://www.w3.org/2000/svg" xmlns:xlink="http://www.w3.org/1999/xlink" x="0px" y="0px"
	 viewBox="0 0 425.2 425.2" style="enable-background:new 0 0 425.2 425.2;" xml:space="preserve">
<style type="text/css">
	.st0{fill:#1D71B8;}
	.st1{fill:#FFFFFF;}
</style>
<path class="st0" d="M332.5,6.8H147.6H92.8H6.5v153.6h0.3v172.1c0,47.5,38.5,86,86,86h239.7c47.5,0,86-38.5,86-86V92.7
	C418.5,45.3,380,6.8,332.5,6.8z"/>
<g>
	<path class="st1" d="M104.4,241.8c0,6.4-2,11.6-5.9,15.6c-4,4-10.6,6-20.1,6.1h-9.2v18.2h9.2v8.8H49.7v-8.8h8.8v-52.8h-8.8V220
		h26.2c7.1,0,12.7,0.8,16.8,2.3c4.2,1.5,7.1,3.9,8.9,7C103.5,232.4,104.4,236.6,104.4,241.8z M93.6,241.5c0-4.4-1.3-7.6-3.9-9.6
		c-2.6-2-7-3.1-13.3-3.1h-7.3v26.1h6.6c4.3,0,7.8-0.4,10.4-1.2c2.6-0.8,4.5-2.2,5.7-4.1C93,247.7,93.6,245,93.6,241.5z"/>
	<path class="st1" d="M162.5,268.3h-41.1c0.6,4.7,2.4,8.4,5.5,11.1c3,2.7,6.8,4.1,11.2,4.1c3.2,0,6.2-0.7,9-2c2.8-1.3,5.1-3.4,7-6.2
		l8.5,3.8c-2.7,4.2-6.2,7.3-10.5,9.5c-4.3,2.1-9.1,3.2-14.2,3.2c-5.3,0-10-1.1-14.1-3.3c-4.1-2.2-7.3-5.3-9.6-9.2
		c-2.3-4-3.4-8.4-3.4-13.4c0-4.9,1.1-9.4,3.4-13.3c2.3-4,5.3-7,9.3-9.3c3.9-2.2,8.2-3.3,13-3.3c5.2,0,9.7,1.1,13.5,3.4
		c3.8,2.3,6.9,5.6,9.1,9.8S162.3,262.5,162.5,268.3z M136.5,248.1c-3.6,0-6.8,1.2-9.6,3.7c-2.7,2.4-4.5,5.7-5.3,9.7h30.7
		c-0.9-4-2.8-7.2-5.7-9.7C143.7,249.3,140.3,248.1,136.5,248.1z"/>
	<path class="st1" d="M221.3,265.9c0,4.8-1.1,9.1-3.4,13.1c-2.3,4-5.4,7.1-9.3,9.4c-3.9,2.3-8.3,3.5-13,3.5c-4.9,0-9.4-1.2-13.3-3.5
		c-4-2.3-7-5.4-9.2-9.4c-2.2-4-3.3-8.3-3.3-13.1c0-5,1.1-9.4,3.3-13.4c2.2-3.9,5.3-7,9.2-9.2c3.9-2.2,8.4-3.3,13.4-3.3
		c4.8,0,9.2,1.2,13.1,3.5c3.9,2.3,7,5.5,9.2,9.5C220.2,257,221.3,261.3,221.3,265.9z M195.6,282.5c2.9,0,5.5-0.7,7.9-2.2
		c2.4-1.5,4.3-3.5,5.6-6c1.3-2.5,2-5.3,2-8.3c0-2.9-0.7-5.6-2-8.2s-3.2-4.6-5.6-6.1s-5.1-2.3-8-2.3c-2.9,0-5.5,0.8-7.9,2.3
		c-2.4,1.5-4.3,3.5-5.6,6.1c-1.4,2.6-2.1,5.3-2.1,8.2c0,2.9,0.7,5.7,2.1,8.2c1.4,2.6,3.3,4.6,5.7,6.1
		C190.1,281.7,192.7,282.5,195.6,282.5z"/>
	<path class="st1" d="M285.9,244.8c0,4.6-1.1,8.9-3.2,12.8s-5,7.1-8.7,9.4c-3.7,2.3-7.7,3.5-12.2,3.5c-6.6,0-12.3-2.5-17.2-7.6v19.5
		h9.6v8.6h-28.1v-8.6h8.9v-53.8h-8.2V220h17.9v7.8c2.4-2.9,5.1-5,8-6.4c2.9-1.4,6.1-2.1,9.4-2.1c4.6,0,8.8,1.1,12.4,3.4
		c3.6,2.3,6.4,5.4,8.4,9.3C284.9,236,285.9,240.2,285.9,244.8z M261.7,261.7c2.7,0,5.1-0.8,7.2-2.3c2.1-1.6,3.8-3.7,5-6.3
		c1.2-2.7,1.8-5.5,1.8-8.5c0-3-0.7-5.8-2-8.3c-1.3-2.5-3.2-4.6-5.5-6.1c-2.3-1.5-5-2.3-7.9-2.3c-3,0-5.8,0.8-8.2,2.4
		c-2.4,1.6-4.3,3.7-5.6,6.4c-1.3,2.6-2,5.6-2,8.7c0,5.1,1.6,9.1,4.8,12C252.6,260.3,256.7,261.7,261.7,261.7z"/>
	<path class="st1" d="M317.1,281.8v8.6h-25.8v-8.6h8.7v-53.3h-8.7V220h18.3v61.8H317.1z"/>
	<path class="st1" d="M375.6,268.3h-41.1c0.6,4.7,2.4,8.4,5.5,11.1c3,2.7,6.8,4.1,11.2,4.1c3.2,0,6.2-0.7,9-2c2.8-1.3,5.1-3.4,7-6.2
		l8.5,3.8c-2.7,4.2-6.2,7.3-10.5,9.5c-4.3,2.1-9.1,3.2-14.2,3.2c-5.3,0-10-1.1-14.1-3.3c-4.1-2.2-7.3-5.3-9.6-9.2
		c-2.3-4-3.4-8.4-3.4-13.4c0-4.9,1.1-9.4,3.4-13.3c2.3-4,5.3-7,9.3-9.3c3.9-2.2,8.2-3.3,13-3.3c5.2,0,9.7,1.1,13.5,3.4
		c3.8,2.3,6.9,5.6,9.1,9.8C374.2,257.5,375.4,262.5,375.6,268.3z M349.6,248.1c-3.6,0-6.8,1.2-9.6,3.7s-4.5,5.7-5.3,9.7h30.7
		c-0.9-4-2.8-7.2-5.7-9.7C356.8,249.3,353.4,248.1,349.6,248.1z"/>
</g>
<g>
	<path class="st1" d="M142.4,147.7c1.7,0,3.1-0.6,4.3-1.8c1.2-1.2,1.8-2.6,1.8-4.3c0-1.7-0.6-3.2-1.8-4.3c-1.2-1.2-2.6-1.8-4.3-1.8
		c-1.7,0-3.1,0.6-4.2,1.8c-1.2,1.2-1.8,2.6-1.8,4.3c0,1.7,0.6,3.1,1.8,4.3C139.4,147.1,140.8,147.7,142.4,147.7z"/>
	<polygon class="st1" points="148,158.9 129.9,158.9 129.9,167.9 137.9,167.9 137.9,201.2 129.9,201.2 129.9,210.1 155.8,210.1 
		155.8,201.2 148,201.2 	"/>
	<path class="st1" d="M205.2,141.4c-2.8-2.7-5.7-4.8-8.6-6.1c-2.9-1.3-6.1-2-9.5-2c-4.7,0-9,1.2-12.9,3.7c-3.9,2.5-6.9,5.8-9.1,9.9
		c-2.2,4.2-3.3,8.7-3.3,13.5c0,4.7,1.1,9.1,3.2,13.1c2.1,4,5.1,7.2,8.9,9.6c3.8,2.4,8.1,3.6,12.8,3.6c3.4,0,6.8-0.7,10.2-2.2
		c3.4-1.5,6.2-3.5,8.4-6.1v4.8c0,5.2-1.4,9.4-4.3,12.5c-2.9,3.2-6.8,4.7-11.9,4.7c-2.8,0-5.4-0.4-7.7-1.3c-2.4-0.9-4.7-2.2-7-3.9
		l-6.5,7.3c5.8,4.6,12.8,6.9,21,6.9c8.6,0,15.2-2.4,19.7-7.3c4.5-4.9,6.8-11.8,6.8-20.7V143h9.3v-9h-19.3V141.4z M203.1,168.9
		c-1.4,2.7-3.4,4.8-6,6.4c-2.6,1.6-5.4,2.4-8.6,2.4c-3.2,0-6-0.8-8.4-2.3c-2.5-1.6-4.3-3.7-5.7-6.3c-1.3-2.7-2-5.6-2-8.8
		c0-3.1,0.7-6,2.1-8.7c1.4-2.7,3.3-4.8,5.8-6.4c2.5-1.6,5.3-2.4,8.3-2.4c3.1,0,5.9,0.8,8.5,2.5c2.5,1.7,4.5,3.8,5.9,6.5
		c1.4,2.7,2.1,5.5,2.1,8.4C205.3,163.3,204.6,166.2,203.1,168.9z"/>
	<polygon class="st1" points="246.2,158.9 228.2,158.9 228.2,167.9 236.1,167.9 236.1,201.2 228.2,201.2 228.2,210.1 254,210.1 
		254,201.2 246.2,201.2 	"/>
	<path class="st1" d="M240.7,147.7c1.7,0,3.1-0.6,4.3-1.8c1.2-1.2,1.8-2.6,1.8-4.3c0-1.7-0.6-3.2-1.8-4.3s-2.6-1.8-4.3-1.8
		c-1.7,0-3.1,0.6-4.2,1.8c-1.2,1.2-1.8,2.6-1.8,4.3c0,1.7,0.6,3.1,1.8,4.3C237.7,147.1,239.1,147.7,240.7,147.7z"/>
	<path class="st1" d="M276.3,141.9l-10.1,9.2v7.8h-6.7v9h6.7v29c0,5.2,0.9,8.8,2.8,10.9c1.9,2.1,4.9,3.2,9.1,3.2
		c1.9,0,4.4-0.5,7.6-1.4v-9.1c-1.8,0.6-3.6,0.9-5.4,0.9c-1.5,0-2.5-0.4-3.1-1.2c-0.6-0.8-0.9-2.6-0.9-5.4v-26.9h9.4v-9h-9.4V141.9z"
		/>
	<path class="st1" d="M336.2,177c0-6.7-1.6-11.7-4.8-14.8c-3.2-3.1-8.2-4.7-15-4.7c-5.1,0-9.5,1-13.2,3c-3.7,2-6.6,5-8.8,9.1
		l9.7,2.4c1.2-2,2.7-3.5,4.6-4.5c1.8-1,4.1-1.5,6.8-1.5c3.9,0,6.6,0.9,8.3,2.6c1.7,1.7,2.5,4.6,2.5,8.6v5.5c-4.3-2.9-9-4.4-14-4.4
		c-3,0-6,0.7-8.9,2c-3,1.4-5.3,3.3-7,5.8c-1.7,2.5-2.6,5.4-2.6,8.6c0,3,0.8,5.7,2.4,8.2c1.6,2.5,3.7,4.4,6.3,5.9
		c2.6,1.5,5.5,2.2,8.7,2.2c6,0,11.4-2.4,16.3-7.2v6.3h17.5v-9h-8.6V177z M326.3,197.1c-4.3,4.1-9,6.2-13.9,6.2
		c-2.7,0-4.8-0.8-6.5-2.4c-1.7-1.6-2.5-3.6-2.5-6.1c0-2.5,1-4.6,2.9-6.3c1.9-1.7,4.2-2.5,6.9-2.5c4.4,0,8.8,1.7,13.2,5.1V197.1z"/>
	<polygon class="st1" points="367.8,201.2 367.8,136.6 348.6,136.6 348.6,145.5 357.7,145.5 357.7,201.2 348.6,201.2 348.6,210.1 
		375.6,210.1 375.6,201.2 	"/>
	<path class="st1" d="M111.3,145.2c-7.4-5.7-18.6-8.5-33.7-8.5H49.7v9.2h9.8V201h-9.8v9.2h27.4c15,0,26.3-3.2,33.9-9.5
		c7.6-6.3,11.4-15.8,11.4-28.4C122.4,159.9,118.7,150.9,111.3,145.2z M98.2,148.4c3.3,0,6,2.6,6,5.8c0,3.2-2.7,5.8-6,5.8
		c-3.3,0-6-2.6-6-5.8C92.1,151,94.8,148.4,98.2,148.4z M113.4,161.4c-4.4,6-10.7,8.2-17.2,6.3c-2.1,3.4-4,6.8-5.9,10.3
		c2.8,1.4,6,3.8,7.7,5.1c2.1,1.6,4.8,8,6.4,11.1c1.7,3.4-3.8,5.9-5.5,2.5c-1.4-2.8-3.8-8.4-5.2-9.5c-1.4-1.1-5.9-4.2-9.4-5.4
		c-0.2-0.1-0.3-0.1-0.5-0.2c-4.2,5.2-12.6,7.6-19.6,3.6c-3.7-2.1-0.4-7.3,3.4-5.2c5.2,2.9,10.6-0.8,13-5.5c2.4-4.7,4.2-8,6.2-11.3
		c-3.9-1.2-7.4-0.1-10.2,3.7c-2.3,3.1-7.6,0.1-5.3-3c5.4-7.3,13.4-9.1,21.5-4.5c0.3,0.2,1.8,1,2.2,1.2c5,2.9,9.7,2.3,13.1-2.4
		C110.4,155.3,115.7,158.3,113.4,161.4z"/>
</g>
</svg>
