<?xml version="1.0" encoding="utf-8"?>
<!-- Generator: Adobe Illustrator 25.3.1, SVG Export Plug-In . SVG Version: 6.00 Build 0)  -->
<svg version="1.1" id="Layer_1" xmlns="http://www.w3.org/2000/svg" xmlns:xlink="http://www.w3.org/1999/xlink" x="0px" y="0px"
	 viewBox="0 0 406.6 85.4" enable-background="new 0 0 406.6 85.4" xml:space="preserve">
<g>
	<path fill="#1E71B8" d="M386,0H60.4H20.6H0v20.6V45v19.8c0,11.4,9.2,20.6,20.6,20.6H386c11.4,0,20.6-9.2,20.6-20.6V20.6
		C406.6,9.2,397.4,0,386,0z"/>
	<g>
		<path fill="#FFFFFF" d="M238.8,37.3c0,3.5-1.1,6.4-3.3,8.6c-2.2,2.2-5.9,3.3-11,3.3h-5.1v10h5v4.8h-15.7v-4.8h4.8V30.2h-4.8v-4.8
			h14.4c3.9,0,7,0.4,9.3,1.3c2.3,0.8,3.9,2.1,4.9,3.8C238.3,32.1,238.8,34.4,238.8,37.3z M232.9,37.1c0-2.4-0.7-4.2-2.1-5.3
			c-1.4-1.1-3.9-1.7-7.3-1.7h-4v14.4h3.6c2.4,0,4.3-0.2,5.7-0.7s2.5-1.2,3.1-2.3C232.6,40.5,232.9,39,232.9,37.1z"/>
		<path fill="#FFFFFF" d="M270.8,51.9h-22.6c0.3,2.6,1.3,4.6,3,6.1c1.7,1.5,3.7,2.2,6.2,2.2c1.8,0,3.4-0.4,5-1.1
			c1.5-0.7,2.8-1.9,3.8-3.4l4.7,2.1c-1.5,2.3-3.4,4-5.8,5.2c-2.4,1.2-5,1.8-7.8,1.8c-2.9,0-5.5-0.6-7.8-1.8c-2.3-1.2-4-2.9-5.3-5.1
			s-1.9-4.6-1.9-7.4c0-2.7,0.6-5.1,1.9-7.3c1.2-2.2,2.9-3.9,5.1-5.1c2.2-1.2,4.5-1.8,7.1-1.8c2.8,0,5.3,0.6,7.4,1.9
			c2.1,1.3,3.8,3.1,5,5.4S270.7,48.7,270.8,51.9z M256.5,40.7c-2,0-3.8,0.7-5.3,2c-1.5,1.3-2.5,3.1-2.9,5.3h16.9
			c-0.5-2.2-1.6-4-3.2-5.3C260.5,41.4,258.6,40.7,256.5,40.7z"/>
		<path fill="#FFFFFF" d="M303.2,50.6c0,2.6-0.6,5-1.9,7.2c-1.3,2.2-3,3.9-5.1,5.2c-2.2,1.3-4.5,1.9-7.2,1.9c-2.7,0-5.1-0.6-7.3-1.9
			c-2.2-1.3-3.9-3-5.1-5.2c-1.2-2.2-1.8-4.6-1.8-7.2c0-2.7,0.6-5.2,1.8-7.4c1.2-2.2,2.9-3.9,5-5.1c2.2-1.2,4.6-1.8,7.3-1.8
			c2.7,0,5.1,0.6,7.2,1.9c2.2,1.3,3.9,3,5.1,5.2C302.6,45.6,303.2,48,303.2,50.6z M289,59.7c1.6,0,3-0.4,4.3-1.2s2.3-1.9,3.1-3.3
			c0.7-1.4,1.1-2.9,1.1-4.5c0-1.6-0.4-3.1-1.1-4.5c-0.7-1.4-1.8-2.5-3.1-3.4s-2.8-1.3-4.4-1.3c-1.6,0-3,0.4-4.3,1.2
			c-1.3,0.8-2.4,1.9-3.1,3.4c-0.8,1.4-1.1,2.9-1.1,4.5c0,1.6,0.4,3.1,1.1,4.5c0.8,1.4,1.8,2.5,3.1,3.3C286,59.3,287.4,59.7,289,59.7
			z"/>
		<path fill="#FFFFFF" d="M338.7,39c0,2.5-0.6,4.9-1.7,7.1c-1.2,2.2-2.8,3.9-4.8,5.2c-2,1.3-4.2,1.9-6.7,1.9c-3.6,0-6.8-1.4-9.5-4.2
			v10.7h5.3v4.7h-15.5v-4.7h4.9V30.1h-4.5v-4.8h9.8v4.3c1.3-1.6,2.8-2.8,4.4-3.5c1.6-0.8,3.3-1.2,5.2-1.2c2.6,0,4.8,0.6,6.8,1.9
			s3.5,3,4.6,5.1C338.2,34.1,338.7,36.4,338.7,39z M325.4,48.3c1.5,0,2.8-0.4,4-1.3c1.2-0.9,2.1-2,2.8-3.5c0.7-1.5,1-3,1-4.7
			c0-1.7-0.4-3.2-1.1-4.6c-0.7-1.4-1.7-2.5-3-3.3c-1.3-0.8-2.7-1.2-4.3-1.2c-1.7,0-3.2,0.4-4.5,1.3c-1.3,0.9-2.4,2.1-3.1,3.5
			c-0.7,1.5-1.1,3.1-1.1,4.8c0,2.8,0.9,5,2.7,6.6C320.4,47.5,322.7,48.3,325.4,48.3z"/>
		<path fill="#FFFFFF" d="M355.9,59.3v4.7h-14.2v-4.7h4.8V30h-4.8v-4.7h10.1v34H355.9z"/>
		<path fill="#FFFFFF" d="M388.1,51.9h-22.6c0.3,2.6,1.3,4.6,3,6.1c1.7,1.5,3.7,2.2,6.2,2.2c1.8,0,3.4-0.4,5-1.1
			c1.5-0.7,2.8-1.9,3.8-3.4l4.7,2.1c-1.5,2.3-3.4,4-5.8,5.2c-2.4,1.2-5,1.8-7.8,1.8c-2.9,0-5.5-0.6-7.8-1.8c-2.3-1.2-4-2.9-5.3-5.1
			s-1.9-4.6-1.9-7.4c0-2.7,0.6-5.1,1.9-7.3c1.2-2.2,2.9-3.9,5.1-5.1c2.2-1.2,4.5-1.8,7.1-1.8c2.8,0,5.3,0.6,7.4,1.9
			c2.1,1.3,3.8,3.1,5,5.4S388,48.7,388.1,51.9z M373.8,40.7c-2,0-3.8,0.7-5.3,2c-1.5,1.3-2.5,3.1-2.9,5.3h16.9
			c-0.5-2.2-1.6-4-3.2-5.3S375.9,40.7,373.8,40.7z"/>
	</g>
	<g>
		<path fill="#FFFFFF" d="M67.3,29.6c0.9,0,1.7-0.3,2.4-1c0.7-0.7,1-1.4,1-2.4c0-0.9-0.3-1.7-1-2.4c-0.6-0.6-1.4-1-2.4-1
			c-0.9,0-1.7,0.3-2.3,1c-0.6,0.7-1,1.4-1,2.4s0.3,1.7,1,2.4C65.6,29.3,66.4,29.6,67.3,29.6z"/>
		<polygon fill="#FFFFFF" points="70.3,35.8 60.4,35.8 60.4,40.8 64.8,40.8 64.8,59.1 60.4,59.1 60.4,64 74.6,64 74.6,59.1 
			70.3,59.1 		"/>
		<path fill="#FFFFFF" d="M101.8,26.2c-1.5-1.5-3.1-2.6-4.7-3.4c-1.6-0.7-3.4-1.1-5.2-1.1c-2.6,0-5,0.7-7.1,2
			c-2.1,1.4-3.8,3.2-5,5.5c-1.2,2.3-1.8,4.8-1.8,7.4c0,2.6,0.6,5,1.8,7.2c1.2,2.2,2.8,4,4.9,5.3c2.1,1.3,4.4,2,7,2
			c1.9,0,3.7-0.4,5.6-1.2c1.9-0.8,3.4-2,4.6-3.4v2.6c0,2.9-0.8,5.2-2.4,6.9c-1.6,1.7-3.8,2.6-6.5,2.6c-1.5,0-3-0.2-4.3-0.7
			c-1.3-0.5-2.6-1.2-3.9-2.1l-3.6,4c3.2,2.5,7,3.8,11.5,3.8c4.8,0,8.4-1.3,10.9-4c2.5-2.7,3.7-6.5,3.7-11.4V27.1h5.1v-5h-10.6V26.2z
			 M100.7,41.3c-0.8,1.5-1.9,2.7-3.3,3.5c-1.4,0.9-3,1.3-4.7,1.3c-1.7,0-3.3-0.4-4.6-1.3c-1.4-0.9-2.4-2-3.1-3.5
			c-0.7-1.5-1.1-3.1-1.1-4.8c0-1.7,0.4-3.3,1.2-4.8c0.8-1.5,1.8-2.7,3.2-3.5c1.4-0.9,2.9-1.3,4.6-1.3c1.7,0,3.3,0.5,4.7,1.4
			c1.4,0.9,2.5,2.1,3.3,3.6c0.8,1.5,1.2,3,1.2,4.6C101.9,38.2,101.5,39.8,100.7,41.3z"/>
		<polygon fill="#FFFFFF" points="124.4,35.8 114.5,35.8 114.5,40.8 118.9,40.8 118.9,59.1 114.5,59.1 114.5,64 128.7,64 
			128.7,59.1 124.4,59.1 		"/>
		<path fill="#FFFFFF" d="M121.4,29.6c0.9,0,1.7-0.3,2.4-1c0.7-0.7,1-1.4,1-2.4c0-0.9-0.3-1.7-1-2.4s-1.4-1-2.4-1
			c-0.9,0-1.7,0.3-2.3,1c-0.6,0.7-1,1.4-1,2.4s0.3,1.7,1,2.4C119.7,29.3,120.5,29.6,121.4,29.6z"/>
		<path fill="#FFFFFF" d="M141,26.5l-5.6,5.1v4.3h-3.7v5h3.7v15.9c0,2.8,0.5,4.9,1.5,6c1,1.2,2.7,1.8,5,1.8c1.1,0,2.4-0.3,4.2-0.8
			v-5c-1,0.3-2,0.5-3,0.5c-0.8,0-1.4-0.2-1.7-0.7c-0.3-0.5-0.5-1.5-0.5-3V40.8h5.2v-5H141V26.5z"/>
		<path fill="#FFFFFF" d="M173.9,45.8c0-3.7-0.9-6.4-2.6-8.1c-1.7-1.7-4.5-2.6-8.3-2.6c-2.8,0-5.2,0.6-7.3,1.7c-2,1.1-3.7,2.8-4.9,5
			l5.3,1.3c0.7-1.1,1.5-1.9,2.5-2.5c1-0.5,2.3-0.8,3.8-0.8c2.1,0,3.7,0.5,4.6,1.4c0.9,0.9,1.4,2.5,1.4,4.7v3
			c-2.4-1.6-4.9-2.4-7.7-2.4c-1.6,0-3.3,0.4-4.9,1.1c-1.6,0.8-2.9,1.8-3.9,3.2c-1,1.4-1.4,3-1.4,4.7c0,1.6,0.4,3.1,1.3,4.5
			c0.9,1.4,2,2.4,3.5,3.2c1.4,0.8,3,1.2,4.8,1.2c3.3,0,6.3-1.3,9-3.9V64h9.6v-4.9h-4.7V45.8z M168.5,56.8c-2.4,2.3-4.9,3.4-7.6,3.4
			c-1.5,0-2.7-0.4-3.6-1.3c-0.9-0.9-1.4-2-1.4-3.3c0-1.4,0.5-2.6,1.6-3.5c1.1-0.9,2.3-1.4,3.8-1.4c2.4,0,4.8,0.9,7.2,2.8V56.8z"/>
		<polygon fill="#FFFFFF" points="191.3,59.1 191.3,23.6 180.8,23.6 180.8,28.4 185.7,28.4 185.7,59.1 180.8,59.1 180.8,64 
			195.6,64 195.6,59.1 		"/>
		<path fill="#FFFFFF" d="M50.2,28.3c-4.1-3.1-10.2-4.7-18.5-4.7H16.3v5h5.4V59h-5.4v5h15.1c8.2,0,14.5-1.7,18.6-5.2
			c4.2-3.5,6.3-8.7,6.3-15.6C56.3,36.4,54.2,31.4,50.2,28.3z M42.9,30c1.8,0,3.3,1.4,3.3,3.2c0,1.8-1.5,3.2-3.3,3.2
			c-1.8,0-3.3-1.4-3.3-3.2C39.6,31.5,41.1,30,42.9,30z M51.3,37.2c-2.4,3.3-5.9,4.5-9.5,3.5c-1.1,1.9-2.2,3.8-3.2,5.7
			c1.5,0.7,3.3,2.1,4.2,2.8c1.2,0.9,2.6,4.4,3.5,6.1c0.9,1.9-2.1,3.2-3,1.4c-0.8-1.5-2.1-4.6-2.8-5.2c-0.8-0.6-3.3-2.3-5.2-2.9
			c-0.1,0-0.2-0.1-0.3-0.1c-2.3,2.9-6.9,4.2-10.8,2c-2.1-1.2-0.2-4,1.9-2.8c2.9,1.6,5.8-0.4,7.2-3c1.3-2.6,2.3-4.4,3.4-6.2
			c-2.1-0.7-4.1-0.1-5.6,2c-1.2,1.7-4.2,0.1-2.9-1.6c3-4,7.4-5,11.8-2.5c0.2,0.1,1,0.5,1.2,0.7c2.8,1.6,5.3,1.3,7.2-1.3
			C49.6,33.8,52.6,35.5,51.3,37.2z"/>
	</g>
</g>
</svg>
